# xmcd
#
# Track frame offsets:
# 150
# 19064
# 36344
# 52182
# 72931
# 92713
# 114525
# 138980
# 165407
# 189897
# 210460
#
# Disc length: 3011 seconds
#
#
# Revision: 0
# Processed by: cddbd v1.5.1PL2 Copyright (c) Steve Scherf et al.
# Submitted via: FreeRIP 2.942 
#
DISCID=930bc10b
DTITLE=Detonautas - Detonautas Roque Clube
DYEAR=1900
DGENRE=
TTITLE0=No Way Out
TTITLE1=Outro Lugar
TTITLE2=Quando O Sol Se For
TTITLE3=Ei Peraê!!!
TTITLE4=Olhos Certos
TTITLE5=Nem Me Lembro Mais
TTITLE6=O Bem E O Mal
TTITLE7=Ladrão De Gravata
TTITLE8=Mais Além
TTITLE9=Que Diferença Faz
TTITLE10=Outro Lugar (Versão Especial)
EXTD=
EXTT0=
EXTT1=
EXTT2=
EXTT3=
EXTT4=
EXTT5=
EXTT6=
EXTT7=
EXTT8=
EXTT9=
EXTT10=
PLAYORDER=
